<svg xmlns="http://www.w3.org/2000/svg" width="80" height="80" viewBox="0 0 80 80"><defs><style>.a{fill:none;}.b,.c{fill:#eac15a;}.b{fill-rule:evenodd;}</style></defs><rect class="a" width="80" height="80"/><g transform="translate(3.323 13.254)"><g transform="translate(0 0)"><g transform="translate(52.068 30.374)"><path class="b" d="M16.67,13.13c4.552,3.09,7.742,7.277,7.742,12.859v9.968H37.7V25.989C37.7,18.745,25.841,14.459,16.67,13.13Z" transform="translate(-16.67 -13.13)"/></g><g transform="translate(13.718)"><circle class="c" cx="13.5" cy="13.5" r="13.5" transform="translate(-0.041 -0.254)"/></g><g transform="translate(42.099 0.037)"><path class="b" d="M18.089,30.582A13.291,13.291,0,0,0,18.089,4a13.883,13.883,0,0,0-4.419.8,19.87,19.87,0,0,1,4.419,12.494A19.87,19.87,0,0,1,13.67,29.785,13.883,13.883,0,0,0,18.089,30.582Z" transform="translate(-13.67 -4)"/></g><g transform="translate(0 29.942)"><path class="b" d="M27.582,13C18.71,13,1,17.453,1,26.291v9.968H54.164V26.291C54.164,17.453,36.454,13,27.582,13Z" transform="translate(-1 -13)"/></g></g></g></svg>